# xmcd CD database file
#
# Track frame offsets:
#	150
#	25602
#	55284
#	74127
#	90330
#	110939
#	143233
#
# Disc length: 2124 seconds
#
# Revision: 0
# Processed by: cddbd v1.5.1PL2 Copyright (c) Steve Scherf et al.
# Submitted via: CDex 1.51
#
DISCID=63084a07
DTITLE=Eastman Youth Jazz Orchestra - EYJO 2004
DYEAR=2004
DGENRE=Jazz
TTITLE0=Eastman Youth Jazz Orchestra - Bli-Blip
TTITLE1=Eastman Youth Jazz Orchestra - Rhapsody In Blue
TTITLE2=Eastman Youth Jazz Orchestra - Jack the Bear
TTITLE3=Eastman Youth Jazz Orchestra - Sugar Rum Cherry
TTITLE4=Eastman Youth Jazz Orchestra - Stompy Jones
TTITLE5=Eastman Youth Jazz Orchestra - Ambienz
TTITLE6=Eastman Youth Jazz Orchestra - C Jam Blues
EXTD=YEAR: 2004
EXTT0=
EXTT1=
EXTT2=
EXTT3=
EXTT4=
EXTT5=
EXTT6=
PLAYORDER=
